PathFileType	4	(X/Y/Z)	 control3min.trc
DataRate	CameraRate	NumFrames	NumMarkers	Units	OrigDataRate	OrigDataStartFrame	OrigNumFrames
200	200	8	43	m	200	501	1000
Frame#	Time	C7			LSH			RSH			MAN			RASI			LASI			HIPR			HIPL			RPSI			LPSI			COX			RTHI1			RTHI2			RTHI3			RTHI4			RLKN			RMKN			RSHA1			RSHA2			RSHA3			RSHA4			RLMAL			RMMAL			RHEEL			RMET5			RMET1			RTOE			LTHI1			LTHI2			LTHI3			LTHI4			LLKN			LMKN			LSHA1			LSHA2			LSHA3			LSHA4			LLMAL			LMMAL			LHEEL			LMET5			LMET1			LTOE			
		X1	Y1	Z1	X2	Y2	Z2	X3	Y3	Z3	X4	Y4	Z4	X5	Y5	Z5	X6	Y6	Z6	X7	Y7	Z7	X8	Y8	Z8	X9	Y9	Z9	X10	Y10	Z10	X11	Y11	Z11	X12	Y12	Z12	X13	Y13	Z13	X14	Y14	Z14	X15	Y15	Z15	X16	Y16	Z16	X17	Y17	Z17	X18	Y18	Z18	X19	Y19	Z19	X20	Y20	Z20	X21	Y21	Z21	X22	Y22	Z22	X23	Y23	Z23	X24	Y24	Z24	X25	Y25	Z25	X26	Y26	Z26	X27	Y27	Z27	X28	Y28	Z28	X29	Y29	Z29	X30	Y30	Z30	X31	Y31	Z31	X32	Y32	Z32	X33	Y33	Z33	X34	Y34	Z34	X35	Y35	Z35	X36	Y36	Z36	X37	Y37	Z37	X38	Y38	Z38	X39	Y39	Z39	X40	Y40	Z40	X41	Y41	Z41	X42	Y42	Z42	X43	Y43	Z43	
501	2.5050	-0.265054	1.358531	-0.541461	-0.190013	1.333661	-0.711972	-0.194466	1.329262	-0.389346	-0.133916	1.293674	-0.548431	-0.112420	0.870617	-0.426289	-0.125638	0.879836	-0.678502	-0.167137	0.923249	-0.403369	-0.182974	0.937234	-0.697016	-0.281322	0.900512	-0.511525	-0.286801	0.900165	-0.576484	-0.288997	0.896450	-0.544573	-0.204344	0.680040	-0.380147	-0.184837	0.623574	-0.382034	-0.122681	0.640528	-0.381619	-0.133953	0.701139	-0.379199	-0.172995	0.438038	-0.411196	-0.163424	0.427370	-0.532499	-0.288915	0.304091	-0.415969	-0.297668	0.265262	-0.425355	-0.248508	0.244376	-0.411202	-0.231888	0.284847	-0.404760	-0.311395	0.119225	-0.442297	-0.293522	0.121724	-0.520375	-0.364401	0.119807	-0.477879	-0.229467	0.035405	-0.423254	-0.194599	0.044976	-0.491764	-0.169014	0.034313	-0.492830	-0.232241	0.701985	-0.727752	-0.213463	0.643360	-0.730641	-0.150311	0.657482	-0.736115	-0.161581	0.716710	-0.734720	-0.194920	0.430848	-0.714340	-0.181085	0.429492	-0.597371	-0.316460	0.275165	-0.701160	-0.328355	0.238486	-0.689228	-0.269133	0.221538	-0.702587	-0.265127	0.263631	-0.713391	-0.325206	0.124164	-0.682217	-0.312062	0.127084	-0.604559	-0.376565	0.133134	-0.634036	-0.252967	0.037670	-0.691903	-0.217066	0.046281	-0.624124	-0.194913	0.035824	-0.622100	
502	2.5100	-0.265443	1.363830	-0.541185	-0.190426	1.339438	-0.711422	-0.194400	1.335030	-0.389373	-0.134470	1.299393	-0.548186	-0.111319	0.876128	-0.426809	-0.124452	0.885414	-0.678460	-0.165742	0.929040	-0.403723	-0.181450	0.943318	-0.696766	-0.279930	0.906159	-0.511718	-0.285428	0.905734	-0.576691	-0.287609	0.902046	-0.544766	-0.203975	0.685860	-0.380352	-0.184923	0.629224	-0.382226	-0.122631	0.645693	-0.381765	-0.133425	0.706384	-0.379373	-0.174274	0.443593	-0.410889	-0.164758	0.433004	-0.532565	-0.289133	0.308781	-0.416087	-0.297598	0.269810	-0.425564	-0.248401	0.249345	-0.410706	-0.232134	0.289960	-0.404157	-0.309431	0.122863	-0.441875	-0.291041	0.125206	-0.519700	-0.361913	0.123716	-0.477701	-0.228691	0.036099	-0.423396	-0.194122	0.044933	-0.491746	-0.168971	0.034353	-0.492840	-0.231537	0.707440	-0.727558	-0.213055	0.648716	-0.730258	-0.149829	0.662481	-0.735625	-0.160776	0.721785	-0.734423	-0.196102	0.436180	-0.713586	-0.181702	0.434446	-0.596440	-0.315810	0.278901	-0.700631	-0.327360	0.242006	-0.688761	-0.267980	0.225741	-0.702696	-0.264484	0.267906	-0.713370	-0.322803	0.127645	-0.682646	-0.309275	0.130119	-0.605186	-0.373690	0.136588	-0.634152	-0.252001	0.038280	-0.691657	-0.216587	0.046208	-0.624252	-0.194877	0.035851	-0.622168	
503	2.5150	-0.265831	1.369303	-0.540898	-0.190909	1.345432	-0.710816	-0.194396	1.340997	-0.389420	-0.135076	1.305334	-0.547901	-0.110225	0.881751	-0.427345	-0.123239	0.890978	-0.678452	-0.164364	0.934953	-0.404086	-0.179845	0.949385	-0.696587	-0.278513	0.912105	-0.511959	-0.284030	0.911603	-0.576949	-0.286202	0.907943	-0.545007	-0.203682	0.691890	-0.380514	-0.185105	0.635078	-0.382333	-0.122678	0.651047	-0.381789	-0.132973	0.711816	-0.379472	-0.175662	0.449381	-0.410436	-0.166203	0.438886	-0.532444	-0.289252	0.313594	-0.416090	-0.297409	0.274491	-0.425633	-0.248188	0.254475	-0.410094	-0.232290	0.295246	-0.403434	-0.307214	0.126605	-0.441394	-0.288228	0.128820	-0.518889	-0.359165	0.127757	-0.477557	-0.227845	0.036754	-0.423482	-0.193622	0.044887	-0.491634	-0.168925	0.034381	-0.492770	-0.230755	0.713018	-0.727488	-0.212575	0.654190	-0.729974	-0.149272	0.667606	-0.735199	-0.159903	0.726970	-0.734193	-0.197275	0.441610	-0.712895	-0.182353	0.439617	-0.595652	-0.314990	0.282751	-0.700063	-0.326160	0.245695	-0.688250	-0.266729	0.230052	-0.702905	-0.263723	0.272287	-0.713412	-0.320159	0.131206	-0.683071	-0.306133	0.133226	-0.605856	-0.370527	0.140137	-0.634197	-0.250988	0.038869	-0.691432	-0.216053	0.046163	-0.624429	-0.194823	0.035893	-0.622280	
504	2.5200	-0.266212	1.374870	-0.540588	-0.191462	1.351585	-0.710153	-0.194455	1.347074	-0.389492	-0.135730	1.311424	-0.547586	-0.109156	0.887437	-0.427882	-0.122019	0.896493	-0.678459	-0.162993	0.940974	-0.404467	-0.178168	0.955440	-0.696468	-0.277088	0.918278	-0.512245	-0.282626	0.917708	-0.577248	-0.284789	0.914073	-0.545296	-0.203464	0.698053	-0.380643	-0.185376	0.641066	-0.382368	-0.122811	0.656526	-0.381700	-0.132601	0.717376	-0.379501	-0.177150	0.455313	-0.409945	-0.167667	0.444893	-0.532189	-0.289284	0.318450	-0.416035	-0.297151	0.279249	-0.425728	-0.247847	0.259695	-0.409404	-0.232352	0.300642	-0.402623	-0.304805	0.130396	-0.440901	-0.285070	0.132531	-0.517950	-0.356148	0.131865	-0.477440	-0.226956	0.037370	-0.423497	-0.193054	0.044892	-0.491418	-0.168847	0.034421	-0.492622	-0.229920	0.718668	-0.727512	-0.212047	0.659737	-0.729767	-0.148659	0.672798	-0.734836	-0.158983	0.732221	-0.734033	-0.198424	0.447074	-0.712247	-0.183078	0.444986	-0.594972	-0.314020	0.286690	-0.699492	-0.324741	0.249473	-0.687695	-0.265376	0.234422	-0.703197	-0.262824	0.276738	-0.713505	-0.317293	0.134782	-0.683490	-0.302637	0.136344	-0.606574	-0.367088	0.143738	-0.634186	-0.249896	0.039501	-0.691246	-0.215456	0.046130	-0.624635	-0.194741	0.035949	-0.622458	
505	2.5250	-0.266586	1.380458	-0.540244	-0.192080	1.357839	-0.709426	-0.194577	1.353199	-0.389597	-0.136418	1.317602	-0.547248	-0.108125	0.893125	-0.428427	-0.120786	0.901936	-0.678467	-0.161616	0.947079	-0.404872	-0.176430	0.961481	-0.696397	-0.275671	0.924615	-0.512571	-0.281225	0.923981	-0.577584	-0.283373	0.920372	-0.545625	-0.203316	0.704285	-0.380746	-0.185720	0.647132	-0.382348	-0.123025	0.662068	-0.381510	-0.132300	0.723004	-0.379462	-0.178726	0.461321	-0.409448	-0.169067	0.450907	-0.531859	-0.289266	0.323311	-0.415890	-0.296725	0.283951	-0.425749	-0.247372	0.264982	-0.408660	-0.232319	0.306107	-0.401739	-0.302185	0.134201	-0.440364	-0.281582	0.136285	-0.516889	-0.352898	0.136035	-0.477363	-0.226060	0.037977	-0.423531	-0.192425	0.044935	-0.491084	-0.168702	0.034488	-0.492368	-0.229056	0.724348	-0.727593	-0.211505	0.665309	-0.729609	-0.148031	0.678010	-0.734537	-0.158061	0.737485	-0.733937	-0.199549	0.452525	-0.711620	-0.183893	0.450518	-0.594354	-0.312898	0.290669	-0.698925	-0.323093	0.253284	-0.687102	-0.263893	0.238841	-0.703559	-0.261775	0.281230	-0.713626	-0.314215	0.138317	-0.683912	-0.298806	0.139430	-0.607326	-0.363407	0.147366	-0.634152	-0.248736	0.040166	-0.691093	-0.214776	0.046155	-0.624886	-0.194618	0.036042	-0.622698	
506	2.5300	-0.266946	1.386002	-0.539862	-0.192755	1.364143	-0.708637	-0.194762	1.359310	-0.389743	-0.137132	1.323799	-0.546887	-0.107123	0.898780	-0.428957	-0.119582	0.907269	-0.678450	-0.160214	0.953235	-0.405305	-0.174647	0.967493	-0.696364	-0.274271	0.931049	-0.512936	-0.279846	0.930356	-0.577960	-0.281974	0.926768	-0.545983	-0.203228	0.710528	-0.380829	-0.186127	0.653222	-0.382289	-0.123305	0.667626	-0.381234	-0.132064	0.728647	-0.379355	-0.180367	0.467338	-0.408967	-0.170333	0.456815	-0.531502	-0.289200	0.328123	-0.415690	-0.296136	0.288516	-0.425732	-0.246738	0.270291	-0.407866	-0.232242	0.311608	-0.400829	-0.299316	0.137962	-0.439767	-0.277806	0.140030	-0.515713	-0.349413	0.140217	-0.477242	-0.225118	0.038600	-0.423561	-0.191694	0.045038	-0.490663	-0.168480	0.034574	-0.492032	-0.228201	0.730019	-0.727695	-0.210984	0.670876	-0.729468	-0.147422	0.683199	-0.734286	-0.157167	0.742716	-0.733889	-0.200659	0.457938	-0.711005	-0.184810	0.456172	-0.593748	-0.311633	0.294658	-0.698375	-0.321198	0.257084	-0.686460	-0.262273	0.243288	-0.703970	-0.260578	0.285744	-0.713764	-0.310946	0.141787	-0.684354	-0.294736	0.142468	-0.608109	-0.359524	0.151013	-0.634147	-0.247485	0.040875	-0.690960	-0.213975	0.046245	-0.625148	-0.194440	0.036137	-0.622962	
507	2.5350	-0.267285	1.391440	-0.539450	-0.193474	1.370444	-0.707786	-0.195004	1.365354	-0.389941	-0.137859	1.329971	-0.546508	-0.106164	0.904350	-0.429463	-0.118409	0.912478	-0.678400	-0.158777	0.959404	-0.405757	-0.172838	0.973458	-0.696348	-0.272902	0.937524	-0.513326	-0.278489	0.936768	-0.578369	-0.280609	0.933209	-0.546366	-0.203194	0.716729	-0.380896	-0.186586	0.659281	-0.382204	-0.123646	0.673146	-0.380895	-0.131883	0.734248	-0.379182	-0.182053	0.473289	-0.408544	-0.171428	0.462534	-0.531161	-0.289101	0.332838	-0.415462	-0.295412	0.292940	-0.425692	-0.245974	0.275582	-0.407037	-0.232115	0.317095	-0.399917	-0.296223	0.141654	-0.439067	-0.273779	0.143761	-0.514457	-0.345715	0.144392	-0.477031	-0.224106	0.039251	-0.423436	-0.190816	0.045252	-0.490156	-0.168158	0.034638	-0.491601	-0.227379	0.735642	-0.727790	-0.210517	0.676394	-0.729315	-0.146871	0.688319	-0.734085	-0.156328	0.747865	-0.733884	-0.201763	0.463284	-0.710406	-0.185838	0.461893	-0.593105	-0.310248	0.298615	-0.697842	-0.319078	0.260840	-0.685792	-0.260522	0.247744	-0.704420	-0.259256	0.290269	-0.713911	-0.307531	0.145177	-0.684821	-0.290537	0.145462	-0.608910	-0.355517	0.154678	-0.634213	-0.246149	0.041688	-0.690876	-0.213048	0.046425	-0.625361	-0.194168	0.036235	-0.623223	
508	2.5400	-0.267601	1.396715	-0.539008	-0.194236	1.376694	-0.706879	-0.195293	1.371269	-0.390196	-0.138612	1.336051	-0.546130	-0.105253	0.909796	-0.429937	-0.117285	0.917541	-0.678303	-0.157307	0.965545	-0.406224	-0.171015	0.979344	-0.696338	-0.271578	0.943986	-0.513729	-0.277176	0.943160	-0.578800	-0.279274	0.939629	-0.546769	-0.203210	0.722838	-0.380948	-0.187090	0.665255	-0.382104	-0.124040	0.678578	-0.380507	-0.131755	0.739762	-0.378953	-0.183765	0.479125	-0.408170	-0.172355	0.468005	-0.530857	-0.288991	0.337388	-0.415242	-0.294554	0.297162	-0.425674	-0.245093	0.280796	-0.406193	-0.231960	0.322502	-0.399036	-0.292995	0.145284	-0.438282	-0.269578	0.147441	-0.513145	-0.341876	0.148530	-0.476698	-0.223024	0.039958	-0.423279	-0.189752	0.045659	-0.489614	-0.167688	0.034744	-0.491101	-0.226621	0.741194	-0.727853	-0.210132	0.681836	-0.729137	-0.146406	0.693340	-0.733916	-0.155555	0.752918	-0.733915	-0.202868	0.468533	-0.709814	-0.186964	0.467623	-0.592391	-0.308820	0.302547	-0.697403	-0.316883	0.264527	-0.685219	-0.258667	0.252185	-0.704891	-0.257839	0.294779	-0.714065	-0.304017	0.148486	-0.685315	-0.286303	0.148423	-0.609706	-0.351476	0.158346	-0.634371	-0.244686	0.042681	-0.690852	-0.211974	0.046706	-0.625573	-0.193769	0.036330	-0.623500	
